Coordinates
version=1
nRows=8
nColumns=28
inDegrees=yes

Units are S.I. units (second, meters, Newtons, ...)
Angles are in degrees.

endheader
time	pelvis_tilt	pelvis_list	pelvis_rotation	pelvis_tx	pelvis_ty	pelvis_tz	hip_flexion_r	hip_adduction_r	hip_rotation_r	knee_angle_r	ankle_angle_r	subtalar_angle_r	mtp_angle_r	hip_flexion_l	hip_adduction_l	hip_rotation_l	knee_angle_l	socket_flexion	socket_adduction	socket_rotation	socket_tx	socket_ty	socket_tz	foot_flex	lumbar_extension	lumbar_bending	lumbar_rotation
      0.93750000	      4.51480954	     -8.77260356	     -4.44436580	      0.46363304	      1.02278138	      0.32154117	      2.75351361	     14.05132764	     -2.83785858	    -19.41123497	      6.15328385	    -11.17391089	     24.51491107	     18.17651745	    -12.94825815	     10.83065252	    -76.12916710	    -11.45915590	     11.45915590	     10.19606757	      0.03665720	      0.07488052	     -0.03733013	     -0.64297515	    -15.92505132	      8.41498400	     12.56121079
      0.94166667	      4.51868081	     -8.70878071	     -4.76628646	      0.46827319	      1.02374604	      0.32172969	      2.26147650	     13.89764117	     -2.71538873	    -19.11552994	      6.09983916	    -10.79328283	     24.55249173	     18.67197261	    -12.87578163	     10.88204408	    -75.79800369	    -11.45915590	     11.45915590	     10.07355145	      0.03702013	      0.07476010	     -0.03735124	     -0.64489391	    -15.96201274	      8.32320292	     12.90889426
      0.94583333	      4.50674265	     -8.64239989	     -5.04688181	      0.47275365	      1.02470032	      0.32198914	      1.81597018	     13.76338879	     -2.55642165	    -18.84421229	      6.04782956	    -10.39343989	     24.60675881	     19.14235103	    -12.77250673	     10.99660446	    -75.34731470	    -11.45915590	     11.45915590	      9.96935070	      0.03729375	      0.07422525	     -0.03720148	     -0.63612846	    -16.03212845	      8.15884472	     13.24662863
      0.95000000	      4.50110415	     -8.58485092	     -5.35099923	      0.47732643	      1.02563555	      0.32221263	      1.35833570	     13.61410535	     -2.45305382	    -18.56494168	      6.00130347	     -9.99507432	     24.67561527	     19.57944346	    -12.69720550	     11.07034305	    -74.87480876	    -11.45915590	     11.45915590	      9.79592408	      0.03754091	      0.07364950	     -0.03714185	     -0.63480757	    -16.09099717	      8.02480449	     13.57676360
      0.95416667	      4.50938375	     -8.58613893	     -5.65590275	      0.48148768	      1.02639957	      0.32248922	      1.04469412	     13.52815909	     -2.49079688	    -18.57269147	      5.99881439	     -9.95111128	     24.68458274	     20.06837896	    -12.70857272	     11.19395995	    -74.44518955	    -11.45915590	     11.45915590	      9.66825270	      0.03789467	      0.07327203	     -0.03734696	     -0.57686410	    -16.25866196	      7.97000895	     13.61182434
      0.95833333	      4.46241228	     -8.48895166	     -5.86459047	      0.48615835	      1.02730785	      0.32264434	      0.52658516	     13.36970225	     -2.23465950	    -18.06173412	      5.89538142	     -9.42341366	     24.77445268	     20.51212551	    -12.52575745	     11.40694185	    -73.82602568	    -11.45915590	     11.45915590	      9.50559869	      0.03816680	      0.07244022	     -0.03718324	     -0.62772072	    -16.19897145	      7.79698949	     13.98660535
      0.96250000	      4.43243700	     -8.43863634	     -6.17976567	      0.49072202	      1.02819035	      0.32275231	      0.10423481	     13.20957447	     -2.14008659	    -17.78952667	      5.77746332	     -8.94156292	     24.88467696	     20.83857072	    -12.40813624	     11.51413310	    -73.16697106	    -11.45915590	     11.45915590	      9.24494243	      0.03814104	      0.07126879	     -0.03692894	     -0.60173838	    -16.24740275	      7.71132109	     14.34797796
      0.96666667	      4.44857768	     -8.44722508	     -6.47978844	      0.49476569	      1.02885283	      0.32302028	     -0.20035997	     13.12036347	     -2.18789434	    -17.80494051	      5.77639126	     -8.90051175	     24.89806329	     21.34115970	    -12.44052274	     11.64385140	    -72.69579215	    -11.45915590	     11.45915590	      9.09329799	      0.03861227	      0.07109577	     -0.03718948	     -0.54158782	    -16.42827752	      7.63479401	     14.37501875
